<?xml version="1.0" encoding="UTF-8"?>
<svg width="257px" height="44px" viewBox="0 0 257 44" version="1.1" xmlns="http://www.w3.org/2000/svg" xmlns:xlink="http://www.w3.org/1999/xlink">
    <title>Group 2</title>
    <g id="Page-1" stroke="none" stroke-width="1" fill="none" fill-rule="evenodd">
        <g id="Artboard" transform="translate(-130.000000, -239.000000)" fill-rule="nonzero">
            <g id="Group" transform="translate(130.612779, 239.062500)">
                <g id="nullk" fill="#181818">
                    <path d="M7.88708496,33.9375 L0,33.9375 L0,8.484375 L7.49890137,8.484375 L7.49890137,13.1055908 L7.75634766,13.1055908 C8.33422852,11.5574951 9.30322266,10.3455811 10.6633301,9.46984863 C12.0234375,8.59411621 13.6331787,8.15625 15.4925537,8.15625 C17.2542725,8.15625 18.8023071,8.54907227 20.1366577,9.3347168 C21.4710083,10.1203613 22.5015259,11.2358398 23.2282104,12.6811523 C23.954895,14.1264648 24.3182373,15.7977295 24.3182373,17.6949463 L24.3182373,33.9375 L16.4307861,33.9375 L16.4307861,19.2143555 C16.4307861,18.2724609 16.269104,17.458252 15.9457397,16.7717285 C15.6223755,16.0852051 15.1454468,15.5568237 14.5149536,15.1865845 C13.8844604,14.8163452 13.1318359,14.6312256 12.2570801,14.6312256 C11.3845215,14.6312256 10.6171875,14.8201904 9.95507812,15.1981201 C9.29296875,15.5760498 8.78277588,16.1206665 8.42449951,16.8319702 C8.06622314,17.5432739 7.88708496,18.387207 7.88708496,19.3637695 L7.88708496,33.9375 Z" id="Path"></path>
                    <path d="M44.9043267,8.484375 L52.7800591,8.484375 L52.7800591,33.9375 L45.2580865,33.9375 L45.2580865,29.2357178 L44.9768365,29.2357178 C44.3952935,30.7994385 43.4245904,32.0286865 42.0647271,32.9234619 C40.7048638,33.8182373 39.0891412,34.265625 37.2175591,34.265625 C35.4944146,34.265625 33.9734185,33.8708496 32.6545708,33.0812988 C31.3357232,32.291748 30.3149102,31.1723633 29.5921319,29.7231445 C28.8693536,28.2739258 28.5079644,26.5968018 28.5079644,24.6917725 L28.5079644,8.484375 L36.3950494,8.484375 L36.3950494,23.1723633 C36.3950494,24.104248 36.564605,24.9102783 36.9037164,25.5904541 C37.2428277,26.2706299 37.7153619,26.7958984 38.3213189,27.1662598 C38.9272759,27.5366211 39.6454156,27.7218018 40.4757378,27.7218018 C41.3028863,27.725708 42.0552666,27.5396118 42.732879,27.1635132 C43.4104913,26.7874146 43.9418023,26.2399902 44.3268121,25.5212402 C44.7118218,24.8024902 44.9043267,23.9466553 44.9043267,22.9537354 L44.9043267,8.484375 Z" id="Path"></path>
                    <polygon id="Path" points="64.9264513 33.9375 57.0393663 33.9375 57.0393663 0 64.9264513 0"></polygon>
                    <polygon id="Path" points="77.0516032 33.9375 69.1645182 33.9375 69.1645182 0 77.0516032 0"></polygon>
                    <path d="M88.4241916,17.6824951 L89.5393039,17.6824951 L96.8759738,8.484375 L105.877439,8.484375 L95.1503879,21.4863281 L93.112424,21.4863281 L88.4003879,27.1087646 L88.4241916,17.6824951 Z M81.2896701,0 L89.1767551,0 L89.1767551,33.9375 L81.2896701,33.9375 L81.2896701,0 Z M90.2709933,23.2613525 L95.489133,17.6542969 L106.249875,33.9375 L97.1077853,33.9375 L90.2709933,23.2613525 Z" id="Shape"></path>
                </g>
                <g id="survey" transform="translate(115.728792, 8.080078)" fill="#38B47E">
                    <path d="M15.4899902,7.33190918 C15.2373047,6.3001709 14.7043457,5.49041748 13.8911133,4.90264893 C13.0778809,4.31488037 12.0012207,4.01464844 10.6611328,4.00195312 C9.72119141,4.00195312 8.88110352,4.15319824 8.14086914,4.45568848 C7.40063477,4.75817871 6.81604004,5.17071533 6.38708496,5.69329834 C5.95812988,6.21588135 5.74511719,6.7947998 5.74804688,7.43005371 C5.75488281,8.19128418 6.07885742,8.83911133 6.7199707,9.37353516 C7.36108398,9.90795898 8.36938477,10.3356934 9.74487305,10.6567383 L13.8068848,11.5942383 C16.1374512,12.1166992 17.878479,12.9498901 19.0299683,14.093811 C20.1814575,15.2377319 20.7650146,16.701416 20.7806396,18.4848633 C20.7679443,20.0251465 20.3475952,21.3879395 19.5195923,22.5732422 C18.6915894,23.7585449 17.4905396,24.6867065 15.9164429,25.3577271 C14.3423462,26.0287476 12.4912109,26.3642578 10.3630371,26.3642578 C8.34863281,26.3642578 6.60577393,26.074585 5.13446045,25.4952393 C3.66314697,24.9158936 2.49206543,24.0697021 1.62121582,22.956665 C0.750366211,21.8436279 0.209960938,20.4945068 0,18.9093018 L5.13867188,18.9093018 C5.35229492,20.0611572 5.89086914,20.9255371 6.75439453,21.5024414 C7.61791992,22.0793457 8.80126953,22.3599854 10.3044434,22.3443604 C11.3867188,22.34729 12.3336182,22.2094727 13.1451416,21.9309082 C13.956665,21.6523438 14.5761719,21.25177 15.0036621,20.729187 C15.4311523,20.206604 15.6448975,19.5897217 15.6448975,18.87854 C15.6419678,18.0548096 15.3244629,17.3740234 14.6923828,16.8361816 C14.0603027,16.2983398 13.0667725,15.8723145 11.711792,15.5581055 L7.7442627,14.6850586 C5.46740723,14.1843262 3.73370361,13.3391724 2.54315186,12.1495972 C1.3526001,10.960022 0.758789062,9.48571777 0.76171875,7.72668457 C0.76171875,6.23010254 1.17340088,4.90118408 1.99676514,3.7399292 C2.82012939,2.57867432 3.97515869,1.67773438 5.46185303,1.03710938 C6.94854736,0.396484375 8.6697998,0.076171875 10.6256104,0.076171875 C12.4769287,0.076171875 14.1038208,0.375549316 15.5062866,0.974304199 C16.9087524,1.57305908 18.0158691,2.41943359 18.8276367,3.51342773 C19.6394043,4.60742188 20.1224365,5.88024902 20.2767334,7.33190918 L15.4899902,7.33190918 Z" id="Path"></path>
                    <path d="M41.0243218,0.404296875 L45.9813531,0.404296875 L45.9813531,25.8574219 L41.1125787,25.8574219 L41.1125787,21.4475098 L40.8313287,21.4475098 C40.2053521,22.869873 39.2389825,24.0151367 37.9322198,24.8833008 C36.6254571,25.7514648 35.0585015,26.1855469 33.2313531,26.1855469 C31.5702203,26.1855469 30.1089776,25.8173218 28.847625,25.0808716 C27.5862725,24.3444214 26.6073907,23.2559814 25.9109795,21.8155518 C25.2145684,20.3751221 24.8663628,18.6315918 24.8663628,16.5849609 L24.8663628,0.404296875 L29.86148,0.404296875 L29.86148,15.9942627 C29.86148,17.1295166 30.0796807,18.1190796 30.5160821,18.9629517 C30.9524834,19.8068237 31.5599053,20.4625854 32.3383477,20.9302368 C33.1167901,21.3978882 34.0140679,21.6317139 35.0301812,21.6317139 C35.9986871,21.6444092 36.9455865,21.4074707 37.8708794,20.9208984 C38.7961724,20.4343262 39.5530694,19.7144775 40.1415704,18.7613525 C40.7300713,17.8082275 41.0243218,16.6450195 41.0243218,15.2717285 L41.0243218,0.404296875 Z" id="Path"></path>
                    <path d="M51.2649522,0.404296875 L56.0930772,0.404296875 L56.0930772,4.47180176 L56.3743272,4.47180176 C56.8245225,3.10510254 57.6351915,2.02130127 58.8063341,1.22039795 C59.9774767,0.419494629 61.3041368,0.0126953125 62.7863145,0 C63.9606309,0.0380859375 64.6755968,0.0841064453 64.931212,0.138061523 L64.931212,4.92370605 C64.6389757,4.84338379 64.2478624,4.77050781 63.7578722,4.70507812 C63.2678819,4.63964844 62.7875352,4.60693359 62.3168321,4.60693359 C61.1727892,4.60693359 60.1438585,4.85443115 59.2300401,5.34942627 C58.3162218,5.84442139 57.5927721,6.52813721 57.059691,7.40057373 C56.52661,8.27301025 56.2600694,9.25549316 56.2600694,10.3480225 L56.2600694,25.8574219 L51.2649522,25.8574219 L51.2649522,0.404296875 Z" id="Path"></path>
                    <polygon id="Path" points="81.2384928 25.8574219 75.8548258 25.8574219 66.6391276 0.404296875 72.0271891 0.404296875 78.4248942 19.9705811 78.7061442 19.9705811 85.1133707 0.404296875 90.5010661 0.404296875"></polygon>
                    <path d="M103.828258,26.3642578 C101.353405,26.3642578 99.2037464,25.828125 97.3792835,24.7558594 C95.5548206,23.6835938 94.1508289,22.1630859 93.1673084,20.1943359 C92.1837879,18.2255859 91.6920277,15.9326172 91.6920277,13.3154297 C91.6920277,10.7185059 92.1852528,8.41448975 93.171703,6.40338135 C94.1581532,4.39227295 95.5384632,2.83496094 97.3126331,1.73144531 C99.0868031,0.627929688 101.145519,0.076171875 103.488781,0.076171875 C105.528331,0.076171875 107.402294,0.517211914 109.110668,1.39929199 C110.819042,2.28137207 112.190319,3.68066406 113.224498,5.59716797 C114.258678,7.51367188 114.775768,9.92834473 114.775768,12.8411865 L114.775768,14.6173096 L94.5133167,14.6173096 L94.5133167,10.8856201 L109.875133,10.8856201 C109.872203,9.60925293 109.609386,8.46160889 109.086681,7.44268799 C108.563976,6.42376709 107.820446,5.62493896 106.85609,5.04620361 C105.891735,4.46746826 104.781017,4.17810059 103.523937,4.17810059 C102.165538,4.17810059 100.970958,4.50549316 99.9401966,5.16027832 C98.9094349,5.81506348 98.1090809,6.69628906 97.5391346,7.80395508 C96.9691883,8.91162109 96.6764027,10.1036377 96.6607777,11.3800049 L96.6607777,14.2694092 C96.6607777,15.9468994 96.9657704,17.3841553 97.5757557,18.5811768 C98.1857411,19.7781982 99.0272938,20.690979 100.100414,21.319519 C101.173534,21.9480591 102.42799,22.2623291 103.863781,22.2623291 C104.767589,22.2593994 105.586559,22.1332397 106.32069,21.8838501 C107.054821,21.6344604 107.675182,21.3045044 108.181774,20.8939819 C108.688366,20.4834595 109.090953,20.012085 109.389537,19.4798584 L114.471447,19.4798584 C114.085949,20.8651123 113.411876,22.0769653 112.44923,23.1154175 C111.486583,24.1538696 110.267528,24.9549561 108.792064,25.5186768 C107.3166,26.0823975 105.661998,26.3642578 103.828258,26.3642578 Z" id="Path"></path>
                    <path d="M121.20318,35.4199219 C119.855523,35.3886719 118.964044,35.3544922 118.528741,35.3173828 L118.528741,31.1066895 C118.840021,31.1311035 119.590631,31.1623535 120.780572,31.2004395 C121.423883,31.1877441 121.959588,31.1216431 122.387689,31.0021362 C122.81579,30.8826294 123.231866,30.5823364 123.635919,30.1012573 C124.039972,29.6201782 124.426324,28.873291 124.794977,27.8605957 L125.439142,26.2218018 L116.105523,0.404296875 L121.475641,0.404296875 L127.882501,20.1210938 L128.163751,20.1210938 L134.579767,0.404296875 L139.967462,0.404296875 L129.469293,29.2218018 C128.713434,31.2838135 127.663324,32.8284302 126.318963,33.8556519 C124.974603,34.8828735 123.269342,35.4042969 121.20318,35.4199219 Z" id="Path"></path>
                </g>
            </g>
        </g>
    </g>
</svg>